<svg width="36" height="27" viewBox="0 0 36 27" fill="none" xmlns="http://www.w3.org/2000/svg">
<path d="M0.102051 3.4509V2.53865C0.102051 1.94908 0.336256 1.38366 0.753145 0.966768C1.17003 0.549879 1.73545 0.315674 2.32502 0.315674L33.4466 0.315674C34.0362 0.315674 34.6016 0.549879 35.0185 0.966768C35.4354 1.38366 35.6696 1.94908 35.6696 2.53865V3.4509L17.8858 14.5658L0.102051 3.4509ZM18.4749 16.8193C18.2982 16.9296 18.0941 16.9881 17.8858 16.9881C17.6775 16.9881 17.4734 16.9296 17.2967 16.8193L0.102051 6.07234V24.7684C0.102051 25.3579 0.336256 25.9234 0.753145 26.3403C1.17003 26.7571 1.73545 26.9914 2.32502 26.9914H33.4466C34.0362 26.9914 34.6016 26.7571 35.0185 26.3403C35.4354 25.9234 35.6696 25.3579 35.6696 24.7684V6.07234L18.4749 16.8193Z" fill="#373737"/>
</svg>
