<svg width="36" height="36" viewBox="0 0 36 36" fill="none" xmlns="http://www.w3.org/2000/svg">
<circle opacity="0.1" cx="18.1712" cy="17.7616" r="16.1181" fill="#151515"/>
<g opacity="0.8">
<path d="M18.1746 10.5528C20.522 10.5528 20.8001 10.5618 21.7271 10.6041C22.5843 10.6432 23.0498 10.7864 23.3596 10.9068C23.77 11.0663 24.0629 11.2568 24.3705 11.5644C24.6781 11.8721 24.8687 12.165 25.0281 12.5753C25.1485 12.8851 25.2918 13.3506 25.3309 14.2078C25.3732 15.1349 25.3821 15.4129 25.3821 17.7604C25.3821 20.1078 25.3732 20.3859 25.3309 21.313C25.2918 22.1701 25.1485 22.6356 25.0281 22.9454C24.8687 23.3558 24.6781 23.6487 24.3705 23.9563C24.0629 24.264 23.77 24.4545 23.3596 24.614C23.0498 24.7344 22.5843 24.8776 21.7271 24.9167C20.8002 24.959 20.5222 24.9679 18.1746 24.9679C15.8269 24.9679 15.5489 24.959 14.622 24.9167C13.7648 24.8776 13.2993 24.7344 12.9895 24.614C12.5791 24.4545 12.2862 24.264 11.9786 23.9563C11.671 23.6487 11.4804 23.3558 11.3209 22.9454C11.2005 22.6356 11.0573 22.1701 11.0182 21.313C10.9759 20.3859 10.967 20.1078 10.967 17.7604C10.967 15.4129 10.9759 15.1349 11.0182 14.2078C11.0573 13.3506 11.2005 12.8851 11.3209 12.5753C11.4804 12.165 11.6709 11.8721 11.9786 11.5645C12.2862 11.2568 12.5791 11.0663 12.9895 10.9068C13.2993 10.7864 13.7648 10.6432 14.622 10.6041C15.549 10.5618 15.8271 10.5528 18.1746 10.5528ZM18.1746 8.96875C15.7869 8.96875 15.4875 8.97887 14.5497 9.02166C13.614 9.06434 12.9749 9.21297 12.4157 9.43028C11.8375 9.65496 11.3472 9.95557 10.8585 10.4443C10.3697 10.9331 10.0691 11.4234 9.84444 12.0015C9.62709 12.5607 9.47846 13.1998 9.43578 14.1356C9.39299 15.0733 9.38287 15.3727 9.38287 17.7604C9.38287 20.1481 9.39299 20.4474 9.43578 21.3852C9.47846 22.3209 9.62709 22.96 9.84444 23.5192C10.0691 24.0974 10.3697 24.5877 10.8585 25.0764C11.3472 25.5652 11.8375 25.8658 12.4157 26.0905C12.9749 26.3078 13.614 26.4564 14.5497 26.4991C15.4875 26.5419 15.7869 26.552 18.1746 26.552C20.5622 26.552 20.8616 26.5419 21.7993 26.4991C22.7351 26.4564 23.3742 26.3078 23.9334 26.0905C24.5115 25.8658 25.0018 25.5652 25.4906 25.0764C25.9794 24.5877 26.28 24.0974 26.5047 23.5192C26.722 22.96 26.8706 22.3209 26.9133 21.3852C26.9561 20.4474 26.9662 20.1481 26.9662 17.7604C26.9662 15.3727 26.9561 15.0733 26.9133 14.1356C26.8706 13.1998 26.722 12.5607 26.5047 12.0015C26.28 11.4234 25.9794 10.9331 25.4906 10.4443C25.0018 9.95557 24.5115 9.65496 23.9334 9.43028C23.3742 9.21297 22.7351 9.06434 21.7993 9.02166C20.8616 8.97887 20.5622 8.96875 18.1746 8.96875Z" fill="#151515"/>
<path d="M18.179 13.25C15.6856 13.25 13.6643 15.2712 13.6643 17.7646C13.6643 20.258 15.6856 22.2792 18.179 22.2792C20.6724 22.2792 22.6936 20.258 22.6936 17.7646C22.6936 15.2712 20.6724 13.25 18.179 13.25ZM18.179 20.6952C16.5605 20.6952 15.2484 19.3831 15.2484 17.7646C15.2484 16.1461 16.5605 14.8341 18.179 14.8341C19.7975 14.8341 21.1095 16.1461 21.1095 17.7646C21.1095 19.3831 19.7975 20.6952 18.179 20.6952Z" fill="#151515"/>
<path d="M23.9232 13.0687C23.9232 13.6513 23.4509 14.1237 22.8682 14.1237C22.2856 14.1237 21.8132 13.6513 21.8132 13.0687C21.8132 12.486 22.2856 12.0137 22.8682 12.0137C23.4509 12.0137 23.9232 12.486 23.9232 13.0687Z" fill="#151515"/>
</g>
</svg>
