<svg width="184" height="30" viewBox="0 0 184 30" fill="none" xmlns="http://www.w3.org/2000/svg">
<path d="M4.65079 7.84473C5.09 7.84473 5.3265 8.04744 5.3265 8.52044V28.319C5.3265 28.7582 5.12379 28.9947 4.65079 28.9947H1.37355C0.934336 28.9947 0.664047 28.792 0.664047 28.319V8.52044C0.664047 8.08123 0.90055 7.84473 1.37355 7.84473H4.65079Z" fill="#151515"/>
<path d="M14.6874 7.84473C16.6132 7.84473 17.0525 8.08123 18.2012 9.63538L29.4519 24.366C29.5532 24.5012 29.6546 24.5687 29.8573 24.5687H30.1276C30.2627 24.5687 30.3641 24.4674 30.3641 24.2647V8.52044C30.3641 8.08123 30.5668 7.84473 31.0398 7.84473H34.2157C34.6549 7.84473 34.8914 8.04744 34.8914 8.52044V25.8526C34.8914 28.2852 34.013 28.9947 32.1885 28.9947H29.587C27.7288 28.9947 27.2896 28.8258 26.0733 27.204L14.755 12.4734C14.6199 12.3382 14.5523 12.2707 14.3496 12.2707H14.0793C13.9104 12.2707 13.8428 12.372 13.8428 12.5747V28.3527C13.8428 28.792 13.6401 29.0285 13.1671 29.0285H9.99121C9.552 29.0285 9.28171 28.8258 9.28171 28.3527V10.9868C9.28171 8.55423 10.1601 7.84473 11.9846 7.84473H14.6874Z" fill="#151515"/>
<path d="M41.9844 7.84473C42.3898 7.84473 42.5249 7.97987 42.6939 8.25016L51.5458 24.5012C51.6471 24.6701 51.7147 24.7039 51.9174 24.7039H52.0525C52.1877 24.7039 52.289 24.6701 52.3904 24.5012L61.1072 8.25016C61.2423 7.94608 61.445 7.84473 61.8167 7.84473H65.7696C66.2426 7.84473 66.344 8.1488 66.1413 8.55423L56.242 26.6972C55.2622 28.5555 54.35 28.9947 53.0661 28.9947H51.3092C49.7551 28.9947 48.8767 28.5555 47.8293 26.6972L37.7949 8.55423C37.5922 8.1488 37.6598 7.84473 38.2003 7.84473H41.9844Z" fill="#151515"/>
<path d="M73.0655 7.84473C73.5048 7.84473 73.7413 8.04744 73.7413 8.52044V28.319C73.7413 28.7582 73.5385 28.9947 73.0655 28.9947H69.7883C69.3491 28.9947 69.0788 28.792 69.0788 28.319V8.52044C69.0788 8.08123 69.3153 7.84473 69.7883 7.84473H73.0655Z" fill="#151515"/>
<path d="M99.7907 7.84473C100.23 7.84473 100.466 8.04744 100.466 8.52044V11.4936C100.466 11.9328 100.264 12.2031 99.7907 12.2031H86.3439C83.2356 12.2031 82.3234 13.1153 82.3234 16.325V20.582C82.3234 23.7917 83.2356 24.7039 86.3439 24.7039H99.7907C100.23 24.7039 100.466 24.9066 100.466 25.3796V28.3527C100.466 28.792 100.264 29.0285 99.7907 29.0285H86.175C80.0597 29.0285 77.7285 26.8662 77.7285 21.055V15.8182C77.7285 10.007 80.0935 7.84473 86.175 7.84473H99.7907Z" fill="#151515"/>
<path d="M127.495 7.84433C127.934 7.84433 128.205 8.04705 128.205 8.52005V11.4932C128.205 11.9324 127.968 12.2027 127.495 12.2027H118.001V28.3524C118.001 28.7916 117.799 29.0281 117.326 29.0281H114.048C113.609 29.0281 113.373 28.8254 113.373 28.3524V12.1689H103.879C103.44 12.1689 103.169 11.9324 103.169 11.4594V8.48626C103.169 8.04705 103.406 7.81055 103.879 7.81055H127.495V7.84433Z" fill="#151515"/>
<path d="M135.234 7.84473C135.673 7.84473 135.91 8.04744 135.91 8.52044V20.582C135.91 23.7917 136.822 24.7039 139.93 24.7039H148.309C151.417 24.7039 152.296 23.7579 152.296 20.582V8.52044C152.296 8.08123 152.498 7.84473 152.971 7.84473H156.249C156.688 7.84473 156.924 8.04744 156.924 8.52044V21.0212C156.924 26.8324 154.593 28.9947 148.478 28.9947H139.795C133.68 28.9947 131.349 26.8324 131.349 21.0212V8.52044C131.349 8.08123 131.585 7.84473 132.058 7.84473H135.234Z" fill="#151515"/>
<path d="M181.723 7.84473C182.162 7.84473 182.399 8.04744 182.399 8.52044V11.3922C182.399 11.8315 182.196 12.068 181.723 12.068H166.587C165.438 12.068 164.999 12.7099 164.999 13.7573V14.7708C164.999 15.8858 165.506 16.4601 166.553 16.4601H177.871C181.351 16.4601 183.142 18.3183 183.142 21.6631V24.0957C183.142 27.0351 181.453 29.0285 177.804 29.0285H161.08C160.64 29.0285 160.37 28.8258 160.37 28.3527V25.4809C160.37 25.0417 160.607 24.8052 161.08 24.8052H176.925C178.074 24.8052 178.513 24.1633 178.513 23.1159V21.8659C178.513 20.7509 178.006 20.1766 176.959 20.1766H165.641C162.161 20.1766 160.37 18.3183 160.37 14.9735V12.7775C160.37 9.83809 162.059 7.84473 165.708 7.84473H181.723Z" fill="#151515"/>
</svg>
