<svg width="36" height="36" viewBox="0 0 36 36" fill="none" xmlns="http://www.w3.org/2000/svg">
<circle opacity="0.1" cx="18.0164" cy="17.7616" r="16.1181" fill="#151515"/>
<path d="M14.5446 14.4561H11.4765C11.3403 14.4561 11.23 14.5664 11.23 14.7026V24.5591C11.23 24.6953 11.3403 24.8056 11.4765 24.8056H14.5446C14.6808 24.8056 14.7911 24.6953 14.7911 24.5591V14.7026C14.7911 14.5664 14.6808 14.4561 14.5446 14.4561Z" fill="#484848"/>
<path d="M13.0122 9.55566C11.8957 9.55566 10.9873 10.463 10.9873 11.5784C10.9873 12.6942 11.8957 13.6019 13.0122 13.6019C14.1279 13.6019 15.0355 12.6941 15.0355 11.5784C15.0356 10.463 14.1279 9.55566 13.0122 9.55566Z" fill="#484848"/>
<path d="M22.3481 14.21C21.1158 14.21 20.2049 14.7397 19.6524 15.3416V14.7014C19.6524 14.5653 19.542 14.4549 19.4059 14.4549H16.4676C16.3314 14.4549 16.2211 14.5653 16.2211 14.7014V24.558C16.2211 24.6942 16.3314 24.8045 16.4676 24.8045H19.529C19.6652 24.8045 19.7755 24.6942 19.7755 24.558V19.6813C19.7755 18.038 20.2219 17.3977 21.3674 17.3977C22.615 17.3977 22.7142 18.4241 22.7142 19.7658V24.5581C22.7142 24.6942 22.8245 24.8046 22.9607 24.8046H26.0232C26.1594 24.8046 26.2698 24.6942 26.2698 24.5581V19.1516C26.2698 16.708 25.8038 14.21 22.3481 14.21Z" fill="#484848"/>
</svg>
