<svg width="36" height="36" viewBox="0 0 36 36" fill="none" xmlns="http://www.w3.org/2000/svg">
<circle opacity="0.1" cx="18.0938" cy="17.7616" r="16.1181" fill="#151515"/>
<path opacity="0.8" fill-rule="evenodd" clip-rule="evenodd" d="M27.7614 12.4189C27.1149 12.7061 26.4193 12.8995 25.6896 12.9868C26.4345 12.5403 27.0065 11.8335 27.2755 10.9913C26.5793 11.405 25.8062 11.7045 24.9852 11.8669C24.327 11.1659 23.3887 10.7275 22.3519 10.7275C20.3599 10.7275 18.7447 12.3428 18.7447 14.3348C18.7447 14.6173 18.7769 14.8928 18.8384 15.1571C15.8401 15.007 13.1822 13.5706 11.4029 11.388C11.0923 11.9208 10.9147 12.5403 10.9147 13.2014C10.9147 14.4526 11.5506 15.5568 12.5194 16.2038C11.9275 16.185 11.3719 16.0227 10.8848 15.7525V15.7976C10.8848 17.5459 12.1291 19.0035 13.7783 19.3358C13.4759 19.4178 13.157 19.4624 12.8283 19.4624C12.5956 19.4624 12.3694 19.4395 12.149 19.3973C12.6079 20.8302 13.9406 21.8735 15.5189 21.9028C14.2846 22.8698 12.7292 23.4471 11.039 23.4471C10.7471 23.4471 10.4599 23.4301 10.178 23.3961C11.7745 24.4194 13.6704 25.0172 15.7076 25.0172C22.3426 25.0172 25.9709 19.5204 25.9709 14.7539C25.9709 14.5974 25.968 14.4415 25.9604 14.2873C26.666 13.7775 27.2779 13.1422 27.7614 12.4189Z" fill="#151515"/>
</svg>
