<svg width="44" height="43" viewBox="0 0 44 43" fill="none" xmlns="http://www.w3.org/2000/svg">
<path d="M21.8857 3.6001C31.7075 3.6001 39.6694 11.562 39.6694 21.3839C39.6694 31.2057 31.7075 39.1677 21.8857 39.1677C18.7379 39.1677 15.7836 38.3466 13.2183 36.9121L4.27526 38.9128L6.55084 30.3877C4.99699 27.746 4.10187 24.6702 4.10187 21.3839C4.10187 11.562 12.0638 3.6001 21.8857 3.6001ZM29.2355 26.7605C29.5475 25.8943 29.5475 25.1526 29.4504 24.9955C29.3556 24.845 29.1096 24.7524 28.7331 24.5664C28.3567 24.3804 26.5131 23.4816 26.1671 23.3594C25.8262 23.2371 25.5736 23.1734 25.3276 23.5454C25.0749 23.9173 24.3591 24.7532 24.136 24.9962C23.9197 25.2459 23.7026 25.2748 23.3261 25.0888C22.9497 24.9028 21.7404 24.5138 20.3081 23.249C19.1936 22.2686 18.4423 21.0556 18.2252 20.6844C18.008 20.3131 18.2014 20.1101 18.3889 19.9241C18.5593 19.7619 18.7653 19.4951 18.9528 19.2802C19.1344 19.0594 19.1988 18.9082 19.3226 18.6585C19.4522 18.4155 19.387 18.1947 19.2937 18.0087C19.2003 17.8227 18.4719 15.9895 18.137 15.2581C17.8561 14.6431 17.5612 14.6253 17.2915 14.6194C17.0729 14.6083 16.8202 14.6083 16.5742 14.6083C16.3215 14.6083 15.9162 14.7001 15.5709 15.0721C15.2316 15.4441 14.2623 16.3385 14.2623 18.1665C14.2623 19.9879 15.6013 21.7529 15.7895 21.9959C15.9777 22.2457 18.3837 26.1099 22.1998 27.5956C25.3639 28.8264 26.01 28.5826 26.7028 28.5189C27.392 28.4603 28.9236 27.6245 29.2355 26.7605Z" fill="white"/>
</svg>
