<svg width="36" height="36" viewBox="0 0 36 36" fill="none" xmlns="http://www.w3.org/2000/svg">
<circle opacity="0.1" cx="18.3815" cy="17.8944" r="16.1181" fill="#151515"/>
<path opacity="0.8" fill-rule="evenodd" clip-rule="evenodd" d="M26.5279 12.1766C26.8203 12.469 27.031 12.8329 27.139 13.2321C27.7609 15.7355 27.6172 19.6894 27.151 22.2894C27.043 22.6886 26.8323 23.0525 26.5399 23.3449C26.2475 23.6373 25.8836 23.848 25.4845 23.956C24.0232 24.3545 18.142 24.3545 18.142 24.3545C18.142 24.3545 12.2608 24.3545 10.7995 23.956C10.4004 23.848 10.0365 23.6373 9.74406 23.3449C9.45166 23.0525 9.24097 22.6886 9.13296 22.2894C8.5074 19.7968 8.67888 15.8406 9.12088 13.2441C9.22889 12.845 9.43959 12.4811 9.73198 12.1887C10.0244 11.8963 10.3883 11.6856 10.7874 11.5776C12.2487 11.1791 18.1299 11.167 18.1299 11.167C18.1299 11.167 24.0112 11.167 25.4724 11.5655C25.8716 11.6735 26.2355 11.8842 26.5279 12.1766ZM21.137 17.7607L16.2581 20.5866V14.9348L21.137 17.7607Z" fill="#151515"/>
</svg>
